<?xml version="1.0" encoding="UTF-8"?>
<svg version="1.1" xmlns="http://www.w3.org/2000/svg" width="1024" height="1024">
<path d="M0 0 C337.92 0 675.84 0 1024 0 C1024 337.92 1024 675.84 1024 1024 C686.08 1024 348.16 1024 0 1024 C0 686.08 0 348.16 0 0 Z " fill="#FEFBF2" transform="translate(0,0)"/>
<path d="M0 0 C16.68443508 13.36720572 28.29884856 31.77393483 32 53 C33.61107816 78.41503571 30.24735077 101.33256641 13 121 C-4.43348401 140.80161368 -4.43348401 140.80161368 -11.17578125 165.6328125 C-11.68494628 187.21040073 -11.68494628 187.21040073 -17.52734375 193.6953125 C-21.22028689 197 -21.22028689 197 -24 197 C-23.896875 197.94875 -23.79375 198.8975 -23.6875 199.875 C-23.71535404 206.75494815 -27.71196352 212.9455711 -32.25 217.875 C-38.31641308 223.44244403 -45.78458301 226.13179813 -54 226 C-63.24316043 224.8811817 -69.39267405 220.25499254 -75.265625 213.30078125 C-79.21144436 208.06634972 -80.40708122 203.64899326 -80 197 C-80.721875 196.814375 -81.44375 196.62875 -82.1875 196.4375 C-87.08306354 193.93532308 -89.31521651 189.93901853 -91.11328125 184.84765625 C-92.14141713 180.38636177 -92.37614516 176.18577225 -92.5 171.625 C-92.76228893 162.05916833 -93.97868604 153.92984336 -98.6875 145.5 C-99.04416748 144.8498291 -99.40083496 144.1996582 -99.76831055 143.52978516 C-103.38386426 137.08267694 -107.70942995 131.58978866 -112.6015625 126.05859375 C-131.99639061 103.97313413 -137.66749927 80.99353434 -136 52 C-133.96974764 33.36388424 -121.79540493 13.76670515 -107.5234375 1.8984375 C-74.68943378 -22.80330524 -33.53449347 -25.37241231 0 0 Z " fill="#1D4170" transform="translate(564,288)"/>
<path d="M0 0 C7.78905632 6.4043352 10.41781511 14.42048401 13.5625 23.6875 C14.5410197 26.51683763 15.52917387 29.34275518 16.51953125 32.16796875 C16.78893524 32.93740814 17.05833923 33.70684753 17.33590698 34.49960327 C20.99140134 44.88791541 24.88572404 55.18803937 28.75 65.5 C36.12656949 85.20872602 43.4014637 104.95272614 50.61262512 124.72244263 C51.36766954 126.79240347 52.12296551 128.8622724 52.8782959 130.93212891 C54.30267001 134.83590117 55.72577393 138.74013534 57.1484375 142.64453125 C57.56541901 143.78843826 57.98240051 144.93234528 58.41201782 146.11091614 C59.20767761 148.29691956 60.0014461 150.48361247 60.79315186 152.67105103 C61.65328 155.04361358 62.51947083 157.41344958 63.39093018 159.78182983 C63.84883656 161.03768063 64.30658396 162.29358941 64.76416016 163.54956055 C65.17719391 164.67549118 65.59022766 165.80142181 66.01577759 166.96147156 C67.35242003 171.08800436 67.77819527 173.71992604 67 178 C64.46546343 181.21954645 62.88702695 182.70432435 59 184 C55.90025179 184.25105336 52.79637729 184.23122942 49.6875 184.25 C48.42389648 184.2809375 48.42389648 184.2809375 47.13476562 184.3125 C42.0061515 184.3445789 38.37267196 183.97109173 34 181 C30.40143695 177.13833341 28.65818647 173.06981246 26.984375 168.14453125 C26.59333588 167.03026009 26.59333588 167.03026009 26.19439697 165.89347839 C25.6486927 164.33270959 25.10773091 162.77027534 24.57128906 161.20629883 C23.74789416 158.80636213 22.91042665 156.41170739 22.0703125 154.01757812 C21.5408471 152.49768109 21.01217306 150.97750809 20.484375 149.45703125 C20.1094693 148.38048027 20.1094693 148.38048027 19.72698975 147.28218079 C18 142.23490139 18 142.23490139 18 140 C-3.45 140.33 -24.9 140.66 -47 141 C-50.45004785 151.58681341 -50.45004785 151.58681341 -53.87988281 162.18017578 C-54.32024025 163.51879284 -54.76127679 164.85718677 -55.203125 166.1953125 C-55.4201709 166.877146 -55.6372168 167.55897949 -55.86083984 168.26147461 C-57.54811614 173.32879355 -59.54859536 178.01496997 -63.7824707 181.44335938 C-69.28633517 184.1501539 -74.10121673 184.60892677 -80.1875 184.5 C-81.50137695 184.52320313 -81.50137695 184.52320313 -82.84179688 184.546875 C-87.06979064 184.52123137 -89.39805288 184.37612061 -93.05078125 182.09375 C-96.16111992 178.75278501 -96.35652813 176.26559554 -96.29492188 171.71426392 C-95.70896459 166.32150453 -93.64351404 161.3751402 -91.75 156.32421875 C-91.3052533 155.10280182 -90.86050659 153.88138489 -90.40228271 152.62295532 C-89.20064407 149.32333419 -87.98164795 146.03038059 -86.75932312 142.73837662 C-85.4801894 139.2835293 -84.21788197 135.82254685 -82.95410156 132.36206055 C-80.92339061 126.80708405 -78.88425925 121.25528148 -76.83789062 115.70605469 C-73.42487654 106.44936642 -70.05537134 97.17706808 -66.69082642 87.90267944 C-65.75086683 85.31488646 -64.8079182 82.72820213 -63.86401367 80.1418457 C-60.26894173 70.2861533 -56.71462728 60.4167737 -53.19140625 50.53515625 C-52.37087646 48.23848672 -51.55023895 45.94185567 -50.72949219 43.64526367 C-49.15433372 39.2376505 -47.58718284 34.82730197 -46.02441406 30.4152832 C-45.30436564 28.39913371 -44.58400357 26.38309619 -43.86328125 24.3671875 C-43.54621719 23.46496964 -43.22915314 22.56275177 -42.90248108 21.63319397 C-36.49388829 3.79608851 -36.49388829 3.79608851 -29 -1 C-20.27382673 -4.73978854 -8.4634698 -4.43578082 0 0 Z " fill="#1E4370" transform="translate(375,561)"/>
<path d="M0 0 C0.89832047 -0.00700928 1.79664093 -0.01401855 2.72218323 -0.02124023 C5.68034119 -0.03879054 8.63753608 -0.02720792 11.59570312 -0.01367188 C13.65783878 -0.01636764 15.71997318 -0.02025076 17.78210449 -0.02526855 C22.0994886 -0.03115959 26.41654121 -0.02261318 30.73388672 -0.00390625 C36.26217792 0.01888286 41.7896923 0.00575769 47.31795502 -0.01819611 C51.57482738 -0.03266461 55.83151621 -0.02804322 60.08839417 -0.01768494 C62.12651156 -0.01502057 64.16464573 -0.01827718 66.20274353 -0.02760315 C69.05357876 -0.03778591 71.90316389 -0.02224334 74.75390625 0 C75.59252701 -0.00809692 76.43114777 -0.01619385 77.29518127 -0.02453613 C82.62098966 0.05227231 85.63974361 1.00421592 89.87695312 4.51757812 C93.11785186 8.52587782 93.30934074 11.87847494 93.31445312 16.95507812 C93.33378906 18.23253906 93.353125 19.51 93.37304688 20.82617188 C92.70336335 25.80925011 90.75429612 28.72478892 87.15081787 32.16596985 C84.07063504 33.99686178 81.84507915 33.87830064 78.27246094 33.8581543 C77.6183876 33.85859238 76.96431427 33.85903046 76.29042053 33.85948181 C74.13666538 33.8573981 71.98369664 33.83408828 69.83007812 33.81054688 C68.33364284 33.8049494 66.83720204 33.80068002 65.34075928 33.79768372 C61.40823097 33.78624677 57.47603674 33.75678981 53.54364014 33.72357178 C48.82215783 33.68744072 44.10056362 33.67370423 39.37898254 33.65621185 C32.21140728 33.62715141 25.04456458 33.56965711 17.87695312 33.51757812 C17.87695312 47.04757812 17.87695312 60.57757812 17.87695312 74.51757812 C21.70546875 74.47117187 25.53398438 74.42476562 29.47851562 74.37695312 C33.19188105 74.34574642 36.90523179 74.32146482 40.61865234 74.29785156 C43.196844 74.2777525 45.77499017 74.25046871 48.35302734 74.21582031 C52.06163773 74.16722966 55.76964468 74.14459155 59.47851562 74.12695312 C60.62873199 74.10630798 61.77894836 74.08566284 62.96401978 74.06439209 C69.24783631 74.06263531 73.13557423 74.22625188 77.87695312 78.51757812 C81.11785186 82.52587782 81.30934074 85.87847494 81.31445312 90.95507812 C81.33378906 92.23253906 81.353125 93.51 81.37304688 94.82617188 C80.79702716 99.11230283 79.63890641 101.22167957 76.87695312 104.51757812 C73.67399391 106.57245361 71.13970905 106.76190269 67.37402344 106.74462891 C66.2731842 106.74447784 65.17234497 106.74432678 64.03814697 106.74417114 C62.85573425 106.73384857 61.67332153 106.723526 60.45507812 106.71289062 C59.23995544 106.71006073 58.02483276 106.70723083 56.77288818 106.70431519 C52.89080978 106.69311766 49.00896184 106.66801346 45.12695312 106.64257812 C42.49544604 106.63254779 39.86393534 106.62342203 37.23242188 106.61523438 C30.78043867 106.59488112 24.32895397 106.55573056 17.87695312 106.51757812 C17.87695312 121.36757813 17.87695312 136.21757813 17.87695312 151.51757812 C22.64390625 151.48277344 27.41085937 151.44796875 32.32226562 151.41210938 C35.3483196 151.39677464 38.37432543 151.38233238 41.40039062 151.37109375 C46.19997143 151.3531837 50.99937998 151.33203163 55.79882812 151.29125977 C59.66973632 151.25858301 63.5404597 151.24070766 67.41149521 151.2329464 C68.8858417 151.22741776 70.36017847 151.21662161 71.83444595 151.20038795 C73.90498699 151.17850225 75.97477144 151.17561572 78.04541016 151.17700195 C79.81079636 151.1670092 79.81079636 151.1670092 81.61184692 151.15681458 C86.60837541 151.70888402 89.83473636 153.36268928 93.18945312 157.08007812 C96.03346357 161.18809321 96.0678896 163.74717837 96.12695312 168.76757812 C96.15273438 170.07210937 96.17851563 171.37664062 96.20507812 172.72070312 C95.84581463 176.87789499 95.25467178 179.09598299 92.87695312 182.51757812 C87.3083083 186.44971192 83.17637702 187.09888624 76.45678711 187.03515625 C75.53881348 187.04216553 74.62083984 187.0491748 73.67504883 187.05639648 C70.65740213 187.07392252 67.64070219 187.06237373 64.62304688 187.04882812 C62.51750001 187.05152435 60.41195436 187.05540786 58.30641174 187.0604248 C53.90084947 187.06631236 49.49561229 187.05777978 45.09008789 187.0390625 C39.44860974 187.0162596 33.80789226 187.02940956 28.16644192 187.05335236 C23.82121567 187.06781829 19.47616929 187.06320088 15.13093758 187.05284119 C13.0509539 187.05017684 10.97095378 187.05343336 8.8909893 187.0627594 C5.98279531 187.07293944 3.07582748 187.05740382 0.16772461 187.03515625 C-0.68802658 187.04325317 -1.54377777 187.0513501 -2.42546082 187.05969238 C-7.80099954 186.98366218 -10.84173401 186.06175827 -15.12304688 182.51757812 C-18.92793552 178.18787726 -19.2502106 174.58029726 -19.2702179 168.93315125 C-19.27389458 168.26103523 -19.27757127 167.58891921 -19.28135937 166.89643604 C-19.29239102 164.63952712 -19.29623914 162.38266426 -19.30004883 160.12573242 C-19.30631381 158.50942844 -19.31296064 156.89312591 -19.31996155 155.27682495 C-19.34099795 149.96515912 -19.35136265 144.65349301 -19.36132812 139.34179688 C-19.36537566 137.5133799 -19.36949258 135.68496307 -19.37367821 133.8565464 C-19.39272793 125.26765301 -19.40696015 116.67876821 -19.41529018 108.08985776 C-19.42506612 98.1737683 -19.45139583 88.25790185 -19.49179107 78.34189099 C-19.52194072 70.67810395 -19.53675791 63.01438089 -19.54007119 55.35053569 C-19.54242275 50.77278648 -19.55139712 46.19527558 -19.57653236 41.61758995 C-19.5997984 37.3108044 -19.60405234 33.00441433 -19.59377098 28.69758224 C-19.59327517 27.11816785 -19.59960902 25.53873409 -19.61332703 23.9593792 C-19.63103073 21.80009796 -19.62394913 19.64223849 -19.61079407 17.48295593 C-19.61318242 16.27561641 -19.61557077 15.06827688 -19.6180315 13.82435131 C-18.84131478 8.63545072 -16.32471264 5.56805722 -12.4432373 2.17492676 C-8.13003805 0.02189516 -4.75375355 -0.04589772 0 0 Z " fill="#1E4370" transform="translate(662.123046875,558.482421875)"/>
<path d="M0 0 C4.80521202 4.10264492 8.59106698 7.35103293 10.0390625 13.66015625 C9.38256391 20.58074551 4.1185501 27.35293133 -0.8359375 31.97265625 C-4.42281994 34.21445778 -6.60998801 34.71047883 -10.8359375 34.84765625 C-13.34205493 33.54306163 -15.29902801 32.32870255 -17.5234375 30.66015625 C-23.64784926 26.38765584 -29.54147657 23.67398924 -36.8359375 21.84765625 C-37.94775391 21.56341797 -37.94775391 21.56341797 -39.08203125 21.2734375 C-55.78014407 18.69174346 -71.68387856 21.42696917 -85.8359375 30.84765625 C-99.15254677 40.85955632 -106.33872739 54.57365286 -108.8359375 70.84765625 C-110.50915638 89.86150714 -107.35695542 107.01497993 -95.76953125 122.6328125 C-86.74387822 133.33765679 -74.28477489 140.56756719 -60.27246094 142.13427734 C-42.95549662 143.36588516 -25.69543627 140.38043431 -11.78515625 129.19921875 C-9.20198771 127.40808385 -6.88150818 127.30404498 -3.78515625 127.44140625 C-0.3505772 128.15723034 1.03635206 130.160022 3.1640625 132.84765625 C3.68097656 133.49863281 4.19789063 134.14960937 4.73046875 134.8203125 C11.96774572 144.15029607 11.96774572 144.15029607 11.1640625 150.84765625 C6.40461987 161.27310201 -6.53118412 166.97060455 -16.68505859 171.05712891 C-26.55152625 174.68341974 -37.29101786 177.59934574 -47.8359375 177.84765625 C-48.93550781 177.89792969 -50.03507813 177.94820312 -51.16796875 178 C-76.59615311 178.66565928 -100.97877107 169.99608268 -119.8359375 152.84765625 C-120.52945312 152.24695313 -121.22296875 151.64625 -121.9375 151.02734375 C-133.08836082 140.76499774 -140.03118391 127.01266018 -144.8359375 112.84765625 C-145.17262451 111.87916748 -145.17262451 111.87916748 -145.51611328 110.89111328 C-153.35120065 87.31369381 -150.18328687 60.04830725 -139.8359375 37.84765625 C-128.22077452 15.10811183 -109.32573179 -2.1868041 -85.11767578 -10.43701172 C-57.79442516 -19.00293557 -23.60391745 -17.95950241 0 0 Z " fill="#1F4370" transform="translate(600.8359375,570.15234375)"/>
<path d="M0 0 C1.05832031 0.01160156 2.11664062 0.02320313 3.20703125 0.03515625 C20.38247227 0.39562847 36.25044077 6.75939766 49.0625 18.375 C49.80757812 19.01695312 50.55265625 19.65890625 51.3203125 20.3203125 C63.50792499 31.51639042 71.68477697 48.96885357 72.3984375 65.5390625 C72.80116789 89.90203846 65.4763527 107.17029874 48.85546875 124.703125 C37.57949994 136.71303261 31.3197235 151.19823161 29.0625 167.375 C22.1325 167.375 15.2025 167.375 8.0625 167.375 C7.8554823 161.07246124 7.67654244 154.78175053 7.56811523 148.47851562 C7.52292313 146.33650721 7.46155346 144.19477541 7.38354492 142.05371094 C7.27402629 138.97000985 7.22326706 135.88998181 7.18359375 132.8046875 C7.13714218 131.85133514 7.09069061 130.89798279 7.04283142 129.91574097 C7.04072796 127.12935482 7.14449382 125.0096156 8.0625 122.375 C10.76198685 119.72943996 13.69383826 118.04741341 17.0625 116.375 C17.99835938 115.85550781 18.93421875 115.33601563 19.8984375 114.80078125 C27.82166033 111.32675278 35.72203167 110.09167526 44.23046875 108.953125 C47.83884506 108.7965581 47.83884506 108.7965581 49.0625 107.375 C49.16666793 105.60599965 49.2010382 103.83284292 49.20776367 102.06079102 C49.21414352 100.92613907 49.22052338 99.79148712 49.22709656 98.62245178 C49.22820938 97.38708176 49.2293222 96.15171173 49.23046875 94.87890625 C49.23379715 93.61988998 49.23712555 92.36087372 49.24055481 91.06370544 C49.24562943 88.39456665 49.24839414 85.72552959 49.24780273 83.05639648 C49.2477011 79.63187285 49.26135201 76.20755649 49.27857494 72.78308201 C49.29235116 69.52336436 49.29178326 66.26364908 49.29296875 63.00390625 C49.30374702 61.15388756 49.30374702 61.15388756 49.31474304 59.26649475 C49.3101281 57.55978859 49.3101281 57.55978859 49.30541992 55.81860352 C49.30684494 54.81346207 49.30826996 53.80832062 49.30973816 52.77272034 C49.29822035 50.19015408 49.29822035 50.19015408 47.0625 48.375 C32.25166202 46.36595889 18.6300109 51.41612517 6.07421875 58.66796875 C3.0625 60.375 3.0625 60.375 0.0625 61.375 C-2.328125 60.1171875 -2.328125 60.1171875 -5.1875 58.25 C-15.72699337 51.84690561 -27.34368293 48.27425746 -39.75 48.1875 C-40.68457031 48.17332031 -41.61914062 48.15914063 -42.58203125 48.14453125 C-45.12774384 48.14198468 -45.12774384 48.14198468 -46.9375 50.375 C-47.23046143 52.8833592 -47.23046143 52.8833592 -47.16455078 55.83447266 C-47.16439972 56.97550446 -47.16424866 58.11653625 -47.16409302 59.29214478 C-47.15377045 60.52862762 -47.14344788 61.76511047 -47.1328125 63.0390625 C-47.12856766 64.9325795 -47.12856766 64.9325795 -47.12423706 66.86434937 C-47.11492131 70.22146944 -47.09694835 73.57831912 -47.0748291 76.93536377 C-47.0543755 80.36053122 -47.0452364 83.78572659 -47.03515625 87.2109375 C-47.01306458 93.93236671 -46.97956377 100.65366773 -46.9375 107.375 C-43.21411408 109.38586139 -40.10172566 109.82164518 -35.875 110.25 C-25.53684402 111.47670939 -13.5731511 114.7393489 -5.9375 122.375 C-5.8446274 123.78725046 -5.82003228 125.20408934 -5.82397461 126.61938477 C-5.82408791 127.97067223 -5.82408791 127.97067223 -5.82420349 129.34925842 C-5.82936478 130.32841721 -5.83452606 131.30757599 -5.83984375 132.31640625 C-5.8412587 133.31381332 -5.84267365 134.3112204 -5.84413147 135.33885193 C-5.84974886 138.53843124 -5.86230429 141.73794169 -5.875 144.9375 C-5.88001276 147.10091045 -5.88457605 149.26432199 -5.88867188 151.42773438 C-5.89887495 156.74353774 -5.91844692 162.05919139 -5.9375 167.375 C-12.5375 167.375 -19.1375 167.375 -25.9375 167.375 C-26.494375 165.1475 -27.05125 162.92 -27.625 160.625 C-31.91943553 144.36194438 -39.53453274 131.8296716 -50.97753906 119.68579102 C-65.26812829 104.4332381 -70.88679045 87.06690279 -70.28125 66.37890625 C-69.29145206 47.88735965 -61.09317817 31.27396004 -47.9375 18.375 C-34.39644512 6.44455517 -18.00683701 -0.25394257 0 0 Z " fill="#FCD54B" transform="translate(510.9375,283.625)"/>
<path d="M0 0 C2.44853157 2.44853157 2.95796126 4.38554472 4.04711914 7.67138672 C4.44415543 8.85957001 4.84119171 10.0477533 5.2502594 11.27194214 C5.67872882 12.57446786 6.10702351 13.87705107 6.53515625 15.1796875 C6.97782612 16.51262117 7.42098378 17.84539294 7.86460876 19.17800903 C8.7936551 21.97279238 9.71880801 24.76882239 10.64086914 27.56591797 C11.82161139 31.14766196 13.00877394 34.72723252 14.19846439 38.30601311 C15.33364271 41.72153761 16.46585271 45.13804348 17.59765625 48.5546875 C17.81341875 49.20537075 18.02918125 49.856054 18.25148201 50.52645493 C18.86336249 52.37371019 19.47287035 54.22175084 20.08227539 56.06982422 C20.42932022 57.12080292 20.77636505 58.17178162 21.13392639 59.25460815 C21.83578354 61.47944549 22.43418437 63.73673746 23 66 C8.48 66 -6.04 66 -21 66 C-19.69512387 60.12805743 -18.35061366 54.62928015 -16.42578125 48.984375 C-16.18085434 48.25383911 -15.93592743 47.52330322 -15.68357849 46.77062988 C-14.89745074 44.42897142 -14.10504977 42.08949172 -13.3125 39.75 C-12.77005747 38.13784677 -12.22806747 36.52554121 -11.68652344 34.91308594 C-10.61882081 31.7356087 -9.54893737 28.55888069 -8.47705078 25.3828125 C-6.55241486 19.6770731 -4.65005193 13.96396504 -2.75 8.25 C-2.20326311 6.60932897 -1.65640595 4.96869801 -1.109375 3.328125 C-0.74328125 2.22984375 -0.3771875 1.1315625 0 0 Z " fill="#FBF8F1" transform="translate(360,603)"/>
<path d="M0 0 C0 12.21 0 24.42 0 37 C-5.61 38.32 -11.22 39.64 -17 41 C-21.0996463 42.59632245 -25.04261343 44.13949456 -29 46 C-29.17376354 41.41035113 -29.30038943 36.82263691 -29.38452148 32.23046875 C-29.41960652 30.67055902 -29.46729082 29.11087759 -29.52807617 27.55175781 C-30.01755656 14.66896306 -30.01755656 14.66896306 -27.59960938 10.703125 C-25.80503073 9.11403246 -24.1490757 8.04869754 -22 7 C-21.08476563 6.46890625 -20.16953125 5.9378125 -19.2265625 5.390625 C-13.10352482 2.70604992 -6.81009528 0 0 0 Z " fill="#FDF7ED" transform="translate(548,344)"/>
<path d="M0 0 C10.24001947 1.13777994 10.24001947 1.13777994 15.0625 3.1875 C16.00222656 3.57292969 16.94195312 3.95835937 17.91015625 4.35546875 C18.92980469 4.89816406 19.94945312 5.44085938 21 6 C21.70431152 6.30389648 22.40862305 6.60779297 23.13427734 6.92089844 C25.80469706 8.37405134 27.24465649 9.49453703 29 12 C30.00635036 17.65276525 29.75461445 23.16058699 29.5 28.875 C29.45983857 30.4374092 29.4233424 31.99991719 29.390625 33.5625 C29.30278602 37.37745004 29.16495494 41.18763748 29 45 C27.89744873 44.56856689 26.79489746 44.13713379 25.65893555 43.69262695 C24.67079361 43.30646713 24.67079361 43.30646713 23.66268921 42.9125061 C22.32003923 42.38638184 20.97935427 41.85523411 19.63989258 41.32104492 C13.07999357 38.81131199 7.07293184 37.63221504 0 36 C0 24.12 0 12.24 0 0 Z " fill="#FDF7ED" transform="translate(476,345)"/>
<path d="M0 0 C17.16 0 34.32 0 52 0 C52 7 52 7 50.78222656 8.9122467 C48.53690074 10.28264518 47.11106399 10.38634542 44.484375 10.40405273 C43.11780762 10.42307899 43.11780762 10.42307899 41.72363281 10.44248962 C40.74233398 10.43955399 39.76103516 10.43661835 38.75 10.43359375 C37.2355127 10.44145653 37.2355127 10.44145653 35.69042969 10.44947815 C33.5553479 10.45590278 31.42023074 10.45455567 29.28515625 10.44604492 C26.01238233 10.43753221 22.7413515 10.46629555 19.46875 10.49804688 C17.39583386 10.49965883 15.32291462 10.49908146 13.25 10.49609375 C12.26870117 10.50732773 11.28740234 10.51856171 10.27636719 10.53013611 C8.9097998 10.51606468 8.9097998 10.51606468 7.515625 10.50170898 C6.71415039 10.50154282 5.91267578 10.50137665 5.08691406 10.50120544 C3 10 3 10 1.21777344 8.34364319 C0 6 0 6 0 0 Z " fill="#58B8ED" transform="translate(486,464)"/>
<path d="M0 0 C4.52601679 3.94201462 8.13315362 8.71628742 11.8125 13.4375 C12.40998047 14.17548828 13.00746094 14.91347656 13.62304688 15.67382812 C17.87634949 21.14236006 17.87634949 21.14236006 18.48828125 25.38671875 C18 28 18 28 16.375 30.375 C13.31050162 32.47176205 11.65838615 32.38899296 8 32 C4.74567747 29.57847655 2.4608006 26.20506372 0 23 C-0.66032227 22.15671143 -0.66032227 22.15671143 -1.33398438 21.29638672 C-2.74405962 19.48364354 -4.12604567 17.65273947 -5.5 15.8125 C-6.16854004 14.94020752 -6.16854004 14.94020752 -6.85058594 14.05029297 C-9.60602564 10.24181209 -10.60555687 7.6879627 -10 3 C-7.71722091 -1.02843369 -4.21619382 -0.58154398 0 0 Z " fill="#FED546" transform="translate(432,244)"/>
<path d="M0 0 C3.02648294 0.98689661 4.0326692 1.41151392 5.875 3.9375 C6.44141136 8.05775764 6.34767023 12.17816935 6.32104492 16.33422852 C6.31254133 18.36512819 6.34128379 20.3932069 6.37304688 22.42382812 C6.37240234 23.70580078 6.37175781 24.98777344 6.37109375 26.30859375 C6.37294678 27.48349365 6.3747998 28.65839355 6.37670898 29.86889648 C5.77506001 33.54876315 4.823158 34.72162533 1.875 36.9375 C-1.125 37.5 -1.125 37.5 -4.125 36.9375 C-8.93139155 32.17909058 -8.66991174 28.19751268 -8.72070312 21.74023438 C-8.70974609 20.46470703 -8.69878906 19.18917969 -8.6875 17.875 C-8.71134766 16.59560547 -8.73519531 15.31621094 -8.75976562 13.99804688 C-8.75783203 12.77021484 -8.75589844 11.54238281 -8.75390625 10.27734375 C-8.75463135 9.15706787 -8.75535645 8.03679199 -8.75610352 6.88256836 C-8.125 3.9375 -8.125 3.9375 -5.78100586 1.53735352 C-3.125 -0.0625 -3.125 -0.0625 0 0 Z " fill="#FED646" transform="translate(513.125,216.0625)"/>
<path d="M0 0 C4.53930723 1.15707831 4.53930723 1.15707831 6.1875 3.8125 C7.125 6.125 7.125 6.125 7.1875 8.8125 C4.49731554 13.20895886 1.38931339 17.29341184 -1.75 21.375 C-2.37551758 22.20161133 -2.37551758 22.20161133 -3.01367188 23.04492188 C-5.7128096 26.56172728 -8.45083824 29.89688397 -11.8125 32.8125 C-15.83284924 32.74435849 -17.9301825 32.6948175 -20.8125 29.8125 C-21.28277723 25.72206787 -21.18279693 23.46137679 -19.125 19.85546875 C-18.361875 18.91316406 -17.59875 17.97085937 -16.8125 17 C-15.99007812 15.97777344 -15.16765625 14.95554687 -14.3203125 13.90234375 C-13.49273438 12.88269531 -12.66515625 11.86304688 -11.8125 10.8125 C-11.10867188 9.82378906 -10.40484375 8.83507812 -9.6796875 7.81640625 C-4.7589433 1.01420103 -4.7589433 1.01420103 0 0 Z " fill="#FED546" transform="translate(595.8125,243.1875)"/>
<path d="M0 0 C9.24 0 18.48 0 28 0 C27.04812889 5.71122666 26.77878972 7.11324486 23 11 C18.53478151 13.72292642 14.08536734 13.65073421 9 13 C4.56209407 10.82139163 2.03492855 8.52206345 0 4 C0 2.68 0 1.36 0 0 Z " fill="#56B3E8" transform="translate(498,487)"/>
<path d="M0 0 C0.33 0 0.66 0 1 0 C1 3.96 1 7.92 1 12 C6.94 12 12.88 12 19 12 C19.33 9.69 19.66 7.38 20 5 C20.33 5 20.66 5 21 5 C21 7.97 21 10.94 21 14 C14.07 14 7.14 14 0 14 C0 9.38 0 4.76 0 0 Z " fill="#E9DA4E" transform="translate(519,437)"/>
<path d="M0 0 C2.45453691 3.68180536 3.72299097 7.41018617 5.1875 11.5625 C5.47302734 12.34302734 5.75855469 13.12355469 6.05273438 13.92773438 C6.76316564 15.93111596 7.38825059 17.9643151 8 20 C7.67 20.66 7.34 21.32 7 22 C2.91406554 15.87109831 -0.43074495 8.40031566 -1 1 C-0.67 0.67 -0.34 0.34 0 0 Z " fill="#F2F4F4" transform="translate(393,703)"/>
<path d="M0 0 C2.1385485 2.1385485 2.42655063 3.13275314 3 6 C2.34 6 1.68 6 1 6 C0.32694982 7.60149886 -0.33822227 9.20631029 -1 10.8125 C-1.37125 11.70582031 -1.7425 12.59914063 -2.125 13.51953125 C-3.16633237 16.0331433 -3.16633237 16.0331433 -3 19 C-3.99 19.33 -4.98 19.66 -6 20 C-4.22089072 13.24947898 -2.29561809 6.59379663 0 0 Z " fill="#F3F5F4" transform="translate(360,603)"/>
<path d="M0 0 C0.66 0.99 1.32 1.98 2 3 C0.33333333 6.33333333 -1.33333333 9.66666667 -3 13 C-3.93045933 10.44855176 -4.08564091 9.25993522 -3.22265625 6.640625 C-2.83980469 5.85171875 -2.45695312 5.0628125 -2.0625 4.25 C-1.68222656 3.45078125 -1.30195313 2.6515625 -0.91015625 1.828125 C-0.60980469 1.22484375 -0.30945313 0.6215625 0 0 Z " fill="#193466" transform="translate(309,649)"/>
<path d="M0 0 C0.99 0.99 1.98 1.98 3 3 C2.67 3.99 2.34 4.98 2 6 C-2.455 4.02 -2.455 4.02 -7 2 C-7 1.67 -7 1.34 -7 1 C-4.69 1.33 -2.38 1.66 0 2 C0 1.34 0 0.68 0 0 Z " fill="#F3F2EF" transform="translate(502,384)"/>
<path d="M0 0 C0.99 0.495 0.99 0.495 2 1 C1.01 1.495 1.01 1.495 0 2 C0 1.34 0 0.68 0 0 Z M-1 2 C-1 2.99 -1 3.98 -1 5 C-1.99 5.495 -1.99 5.495 -3 6 C-2.34 4.68 -1.68 3.36 -1 2 Z M-7 9 C-6.67 9.99 -6.34 10.98 -6 12 C-6.99 12.33 -7.98 12.66 -9 13 C-9.66 12.34 -10.32 11.68 -11 11 C-9.68 10.34 -8.36 9.68 -7 9 Z " fill="#EEF0F0" transform="translate(606,593)"/>
<path d="M0 0 C3.43927579 1.2419607 6.25207819 2.55740284 9 5 C9 5.66 9 6.32 9 7 C5.88626628 5.50079488 2.87771795 3.91847864 0 2 C0 1.34 0 0.68 0 0 Z " fill="#ECEFF0" transform="translate(578,597)"/>
<path d="M0 0 C0.66 0.33 1.32 0.66 2 1 C0.625 3.5 0.625 3.5 -1 6 C-1.66 6 -2.32 6 -3 6 C-2 4 -1 2 0 0 Z M-5 6 C-4.34 6.33 -3.68 6.66 -3 7 C-3.99 7 -4.98 7 -6 7 C-5.67 6.67 -5.34 6.34 -5 6 Z " fill="#EDEEF0" transform="translate(611,721)"/>
</svg>
